PathFileType   4   (X/Y/Z)
DataRate	CameraRate	NumFrames	NumMarkers	Units	OrigDataRate	OrigDataStartFrame	OrigNumFrames
120.0	120.0	7	37	mm	120.0	86	136
Frame#	Time	midhip	hip_r	hip_l	knee_r	knee_l	ankle_r	ankle_l	midasis	asis_r	asis_l	psis_r	psis_l	epicondLat_r	epicondLat_l	epicondMed_r	epicondMed_l	malleolusLat_r	malleolusLat_l	malleolusMedv_r	malleolusMedv_l	neck	subclavicle_r	subclavicle_l	sternalnotch	xyphoidprocess	thighwand_r	thighwand_l	upperleg1_r	upperleg1_l	upperleg2_r	upperleg2_l	shankwand_r	shankwand_l	lowerleg1_r	lowerleg1_l	toe_r	toe_l
 	 	X1	Y1	Z1	X2	Y2	Z2	X3	Y3	Z3	X4	Y4	Z4	X5	Y5	Z5	X6	Y6	Z6	X7	Y7	Z7	X8	Y8	Z8	X9	Y9	Z9	X10	Y10	Z10	X11	Y11	Z11	X12	Y12	Z12	X13	Y13	Z13	X14	Y14	Z14	X15	Y15	Z15	X16	Y16	Z16	X17	Y17	Z17	X18	Y18	Z18	X19	Y19	Z19	X20	Y20	Z20	X21	Y21	Z21	X22	Y22	Z22	X23	Y23	Z23	X24	Y24	Z24	X25	Y25	Z25	X26	Y26	Z26	X27	Y27	Z27	X28	Y28	Z28	X29	Y29	Z29	X30	Y30	Z30	X31	Y31	Z31	X32	Y32	Z32	X33	Y33	Z33	X34	Y34	Z34	X35	Y35	Z35	X36	Y36	Z36	X37	Y37	Z37

	86	0.94167	1947.476	771.604	-229.495	1932.498	779.778	-149.651	1923.816	771.383	-304.811	1999.766	419.016	-187.210	1989.390	400.631	-361.356	1980.096	60.398	-208.416	1704.777	187.609	-299.941	2054.678	849.088	-238.288	2061.617	855.797	-114.285	2047.740	842.378	-362.290	1811.349	920.516	-194.725	1806.053	915.057	-248.692	2009.791	413.537	-116.629	1980.773	409.841	-431.735	1976.643	429.206	-254.874	2010.142	380.092	-276.570	1975.739	58.379	-170.216	1690.202	196.838	-335.476	1982.370	71.462	-244.648	1718.566	205.446	-261.364	1856.988	1347.283	-226.702	1983.515	1274.332	-201.331	1977.045	1278.825	-283.548	1962.319	1272.776	-253.367	2010.862	1196.888	-260.219	2137.737	587.637	-110.639	2141.667	614.798	-356.304	2094.982	606.740	-124.569	2092.968	619.708	-359.454	2079.765	530.820	-138.087	2090.637	545.591	-363.427	2076.555	196.351	-183.135	1761.095	255.038	-418.561	2029.845	205.954	-189.001	1777.514	267.590	-374.950	2090.884	44.179	-204.433	1745.739	94.287	-315.564
	87	0.95000	1953.329	771.942	-229.160	1938.176	780.091	-149.331	1929.868	771.683	-304.510	2001.684	419.000	-186.949	2002.953	401.989	-361.680	1980.434	60.400	-208.469	1721.240	185.672	-300.145	2060.556	849.417	-237.679	2067.196	856.137	-113.651	2053.915	842.697	-361.707	1816.953	920.806	-194.528	1811.773	915.458	-248.410	2010.989	413.275	-116.289	1994.614	411.228	-432.089	1978.340	430.239	-254.531	2021.312	381.677	-278.532	1975.888	58.379	-170.292	1706.497	194.774	-335.643	1982.469	72.086	-244.700	1734.608	204.608	-261.595	1863.220	1347.755	-226.517	1989.777	1274.555	-201.097	1983.223	1279.373	-283.243	1968.420	1273.005	-253.069	2016.995	1197.318	-260.295	2140.824	585.816	-108.777	2150.797	618.819	-355.057	2099.030	605.259	-123.287	2102.318	622.829	-358.513	2082.278	530.019	-136.674	2100.785	548.870	-363.188	2077.014	195.971	-182.726	1776.653	253.997	-418.739	2030.791	206.214	-188.383	1793.160	267.606	-375.365	2090.963	44.098	-204.398	1764.522	94.044	-315.703
	88	0.95833	1959.171	772.343	-228.819	1943.828	780.426	-149.012	1935.915	772.035	-304.213	2003.554	419.017	-186.731	2016.405	403.416	-361.806	1980.739	60.417	-208.515	1738.141	183.088	-300.391	2066.391	849.834	-237.042	2072.714	856.539	-113.021	2060.067	843.129	-361.063	1822.503	921.060	-194.366	1817.462	915.849	-248.196	2012.104	413.047	-115.995	2008.358	412.665	-432.248	1981.137	430.071	-253.483	2033.590	383.657	-277.543	1976.022	58.399	-170.359	1723.233	192.030	-335.860	1982.752	72.477	-244.744	1750.332	203.615	-261.686	1869.456	1348.424	-226.245	1995.984	1274.905	-200.686	1989.165	1279.929	-282.889	1974.443	1273.201	-252.746	2022.861	1197.757	-260.193	2143.762	583.953	-106.902	2159.740	622.868	-353.675	2103.156	604.017	-121.897	2110.981	625.606	-357.824	2085.176	528.821	-134.951	2110.962	552.191	-362.048	2077.461	195.629	-182.371	1792.553	252.486	-418.935	2031.683	206.368	-187.995	1808.030	266.963	-375.709	2091.026	44.036	-204.345	1783.968	93.413	-315.823
	89	0.96667	1964.999	772.794	-228.460	1949.451	780.770	-148.686	1941.954	772.437	-303.911	2005.385	419.068	-186.557	2029.730	404.894	-361.726	1980.992	60.447	-208.550	1755.473	179.909	-300.660	2072.183	850.323	-236.364	2078.171	856.979	-112.376	2066.195	843.667	-360.352	1828.014	921.281	-194.235	1823.138	916.220	-248.057	2013.155	412.856	-115.753	2021.984	414.130	-432.202	1985.481	429.509	-253.628	2046.861	385.217	-276.592	1976.130	58.439	-170.412	1740.407	188.652	-336.112	1982.691	72.982	-244.760	1767.646	199.991	-261.983	1875.595	1349.127	-225.949	2002.057	1275.379	-200.259	1995.167	1280.066	-282.455	1980.394	1273.382	-252.404	2028.694	1197.914	-259.453	2146.561	582.077	-105.030	2168.515	626.924	-352.180	2106.409	602.734	-120.505	2119.433	628.789	-356.702	2088.350	528.095	-133.656	2121.104	555.227	-360.795	2077.904	195.325	-182.080	1808.794	250.522	-419.137	2032.239	206.557	-187.534	1824.033	264.666	-375.839	2091.067	43.992	-204.278	1804.057	92.441	-315.949
	90	0.97500	1970.809	773.270	-228.080	1955.037	781.104	-148.353	1947.978	772.882	-303.604	2007.191	419.149	-186.427	2042.912	406.411	-361.432	1981.189	60.487	-208.575	1773.231	176.193	-300.938	2077.933	850.861	-235.639	2083.568	857.424	-111.700	2072.298	844.297	-359.578	1833.502	921.469	-194.132	1828.818	916.561	-247.997	2014.168	412.700	-115.561	2035.469	415.610	-431.946	1989.317	427.378	-253.743	2060.871	386.359	-277.335	1976.208	58.494	-170.451	1758.022	184.694	-336.387	1982.509	73.406	-244.760	1786.454	195.072	-262.602	1881.720	1349.527	-225.887	2008.004	1275.520	-199.969	2001.056	1279.669	-282.151	1986.282	1273.539	-252.070	2034.336	1197.567	-258.641	2149.247	580.211	-103.184	2177.145	630.962	-350.592	2107.423	600.622	-119.319	2128.328	632.448	-355.015	2090.616	527.267	-132.661	2131.558	558.423	-359.869	2078.349	195.057	-181.855	1825.372	248.126	-419.332	2032.423	206.743	-187.175	1841.630	262.019	-376.202	2091.088	43.961	-204.204	1824.759	91.173	-316.106
	91	0.98333	1976.591	773.747	-227.686	1960.579	781.407	-148.019	1953.981	773.357	-303.299	2008.986	419.250	-186.335	2055.930	407.959	-360.920	1981.335	60.532	-208.593	1791.412	171.996	-301.213	2083.643	851.414	-234.866	2088.907	857.837	-110.983	2078.379	844.992	-358.749	1838.981	921.625	-194.065	1834.522	916.861	-248.019	2015.173	412.573	-115.417	2048.795	417.094	-431.474	1990.689	429.581	-254.565	2075.251	387.708	-277.129	1976.259	58.558	-170.480	1776.078	180.211	-336.676	1982.505	73.691	-244.770	1803.919	191.494	-262.803	1887.790	1349.702	-225.654	2013.777	1275.201	-199.871	2006.658	1279.414	-281.911	1992.137	1273.666	-251.794	2039.654	1197.168	-258.584	2151.852	578.375	-101.392	2185.647	634.951	-348.921	2111.117	599.463	-117.566	2137.055	635.612	-353.568	2092.752	526.151	-131.709	2142.125	561.815	-358.658	2078.804	194.815	-181.689	1842.278	245.320	-419.505	2032.630	206.985	-187.040	1858.222	259.942	-376.185	2091.097	43.938	-204.134	1846.037	89.646	-316.311
	92	0.99167	1982.335	774.197	-227.296	1966.065	781.657	-147.694	1959.956	773.846	-303.007	2010.776	419.356	-186.277	2068.764	409.532	-360.189	1981.441	60.576	-208.610	1810.014	167.372	-301.476	2089.312	851.950	-234.051	2094.183	858.178	-110.224	2084.441	845.723	-357.878	1844.463	921.748	-194.043	1840.265	917.113	-248.121	2016.194	412.468	-115.316	2061.946	418.577	-430.787	1992.052	431.942	-255.594	2088.355	389.138	-276.326	1976.291	58.625	-170.506	1794.580	175.258	-336.971	1982.988	73.644	-244.814	1821.212	187.544	-262.828	1893.711	1350.135	-225.434	2019.546	1275.242	-199.618	2012.209	1279.609	-281.542	1997.981	1273.806	-251.581	2045.035	1197.232	-258.492	2154.414	576.582	-99.689	2194.039	638.860	-347.170	2114.586	598.163	-115.867	2145.244	637.895	-352.478	2094.824	525.215	-130.889	2152.031	565.082	-357.327	2079.272	194.590	-181.574	1859.499	242.136	-419.645	2033.119	207.173	-187.278	1874.152	256.962	-375.988	2091.107	43.918	-204.077	1867.846	87.890	-316.576
